<?xml version="1.0" encoding="UTF-8" standalone="no"?>
<svg width="80px" height="80px" viewBox="0 0 80 80" version="1.1" xmlns="http://www.w3.org/2000/svg" xmlns:xlink="http://www.w3.org/1999/xlink" xmlns:sketch="http://www.bohemiancoding.com/sketch/ns">
    <!-- Generator: Sketch 3.4 (15588) - http://www.bohemiancoding.com/sketch -->
    <title>logo</title>
    <desc>Created with Sketch.</desc>
    <defs></defs>
    <g id="Layouts" stroke="none" stroke-width="1" fill="none" fill-rule="evenodd" sketch:type="MSPage">
        <g id="logo" sketch:type="MSArtboardGroup" fill="#FF4E36">
            <g id="Imported-Layers-Copy" sketch:type="MSLayerGroup">
                <path d="M66.7834483,50.2653793 C66.0518621,50.214069 65.4228966,50.7205517 65.3748966,51.3903448 C65.3489655,51.7390345 65.5889655,52.1936552 65.9067586,52.3475862 C65.2893793,53.8212414 63.7886897,54.72 62.3591724,54.1456552 C57.9288276,52.3575172 54.1936552,35.8653793 52.3972414,29.0863448 C50.7001379,22.665931 44.9495172,22.2863448 42.3354483,29.3732414 C39.7031724,22.3409655 34.8827586,23.5304828 33.241931,26.8744828 C32.5291034,28.3271724 32.1395862,29.9376552 31.6932414,31.4791724 C31.2347586,33.0791724 30.8965517,35.1646897 30.1715862,36.9048276 C30.0143448,36.8331034 29.849931,36.7613793 29.686069,36.7028966 C27.0129655,35.712 22.7492414,36.4502069 22.8193103,39.1922759 C22.8761379,41.5718621 25.2231724,42.2824828 27.3274483,41.910069 C29.4228966,41.5409655 30.7906207,40.1324138 31.4471724,39.0929655 C32.345931,40.2587586 32.8932414,41.7870345 33.1851034,43.1955862 C33.488,44.6758621 33.4433103,46.2554483 33.0609655,47.7423448 C30.8573793,56.3751724 16.9307586,56.4397241 18.3067586,45.2568276 C19.0113103,39.5475862 21.0333793,31.254069 21.3235862,30.2041379 C22.3834483,26.4297931 24.6295172,24.8126897 26.512,25.1238621 C29.9393103,25.6910345 29.9784828,33.1508966 25.6998621,33.9067586 C25.6452414,33.3936552 25.2744828,32.9936552 24.697931,32.9936552 C24.0744828,32.9936552 23.5668966,33.4554483 23.5668966,34.0264828 C23.5768276,35.7186207 26.6295172,34.9633103 27.3958621,34.6521379 C30.2262069,33.5133793 31.8422069,30.3238621 30.3222069,27.2364138 C28.2284138,22.9771034 22.3906207,23.3357241 19.8626207,27.8416552 C18.2449655,30.7205517 16.5682759,38.7442759 15.6623448,43.7804138 C13.4195862,56.2482759 31.2402759,59.4416552 35.0537931,49.1542069 C36.1208276,46.2863448 35.7715862,42.8022069 34.182069,40.2311724 C33.5972414,39.2844138 32.8811034,38.5456552 32.0656552,37.9542069 C32.7012414,36.6074483 33.0129655,35.2844138 33.1597241,34.7304828 C34.1511724,30.9048276 35.0913103,25.2844138 37.6623448,25.2193103 C39.0537931,25.1889655 40.489931,28.2626207 41.5784828,32.073931 C41.536,32.2929655 41.4913103,32.5081379 41.4488276,32.7304828 C40.8617931,36.0673103 39.3511724,39.168 39.3853793,43.1851034 C39.3953103,44.5528276 40.0788966,47.1851034 42.4965517,47.1851034 C44.9153103,47.1851034 45.6143448,44.5390345 45.6143448,43.1851034 C45.6143448,39.2193103 43.9884138,36.2212414 43.289931,32.7917241 C43.2314483,32.5186207 43.1768276,32.2554483 43.1150345,31.9955862 C44.1666207,28.2383448 45.5972414,25.216 47.0725517,25.2093793 C48.3663448,25.1988966 49.478069,26.0402759 50.2383448,29.3428966 C52.7613793,40.2587586 55.4228966,54.2995862 62.3801379,55.2088276 C64.9765517,55.5442759 67.7318621,54.3817931 67.9768276,51.6297931 C68.0005517,50.7238621 67.4482759,50.3166897 66.7834483,50.2653793 L66.7834483,50.2653793 Z M26.6295172,40.2212414 C24.6366897,40.5594483 23.9735172,38.2212414 25.3544828,37.462069 C26.3801379,36.9015172 27.961931,37.0824828 28.8998621,37.3291034 C29.2248276,37.4107586 29.5288276,37.5337931 29.8129655,37.6811034 C29.1293793,38.9732414 28.1544828,39.958069 26.6295172,40.2212414 L26.6295172,40.2212414 Z M42.4226207,46.4568276 C40.9302069,46.4568276 41.1955862,40.6791724 42.3497931,35.1508966 C43.5525517,40.6791724 43.910069,46.4568276 42.4226207,46.4568276 L42.4226207,46.4568276 Z" id="Fill-1" sketch:type="MSShapeGroup"></path>
                <path d="M40.1136461,3.23760077 C60.3026183,3.23760077 76.6641379,19.5980532 76.6641379,39.7870254 C76.6641379,59.9727961 60.3026183,76.3359165 40.1136461,76.3359165 C19.931077,76.3359165 3.56262069,59.9727961 3.56262069,39.7870254 C3.56262069,19.5980532 19.931077,3.23760077 40.1136461,3.23760077 M40.1136552,0.0915862069 C18.230069,0.0915862069 0.422068966,17.9034483 0.422068966,39.7870345 C0.422068966,61.6706207 18.230069,79.4791724 40.1136552,79.4791724 C62.0044138,79.4791724 79.8107586,61.6706207 79.8107586,39.7870345 C79.8107586,17.9034483 62.0044138,0.0915862069 40.1136552,0.0915862069" id="Fill-2" sketch:type="MSShapeGroup"></path>
            </g>
        </g>
    </g>
</svg>